<mxfile host="app.diagrams.net" modified="2023-07-13T16:32:58.095Z" agent="Mozilla/5.0 (Windows NT 10.0; Win64; x64) AppleWebKit/537.36 (KHTML, like Gecko) Chrome/114.0.0.0 Safari/537.36" etag="u9FMexc7PNsq9F64Xfby" version="21.3.3" type="device">
  <diagram name="Page-1" id="kRH8qQb5mHMFnrw4WjU2">
    <mxGraphModel dx="1050" dy="541" grid="1" gridSize="10" guides="1" tooltips="1" connect="1" arrows="1" fold="1" page="1" pageScale="1" pageWidth="850" pageHeight="1100" math="0" shadow="0">
      <root>
        <mxCell id="0" />
        <mxCell id="1" parent="0" />
        <mxCell id="QcyDeqVeKNj4fHNgKDZS-1" value="" style="rounded=0;whiteSpace=wrap;html=1;" vertex="1" parent="1">
          <mxGeometry x="230" y="80" width="410" height="680" as="geometry" />
        </mxCell>
        <mxCell id="QcyDeqVeKNj4fHNgKDZS-2" value="&lt;b&gt;&lt;font style=&quot;font-size: 16px;&quot;&gt;Online Book Store&lt;/font&gt;&lt;/b&gt;" style="text;html=1;strokeColor=none;fillColor=none;align=center;verticalAlign=middle;whiteSpace=wrap;rounded=0;" vertex="1" parent="1">
          <mxGeometry x="353" y="40" width="158" height="30" as="geometry" />
        </mxCell>
        <mxCell id="QcyDeqVeKNj4fHNgKDZS-4" value="User" style="shape=umlActor;verticalLabelPosition=bottom;verticalAlign=top;html=1;outlineConnect=0;" vertex="1" parent="1">
          <mxGeometry x="110" y="300" width="30" height="60" as="geometry" />
        </mxCell>
        <mxCell id="QcyDeqVeKNj4fHNgKDZS-6" value="Admin" style="shape=umlActor;verticalLabelPosition=bottom;verticalAlign=top;html=1;outlineConnect=0;" vertex="1" parent="1">
          <mxGeometry x="700" y="290" width="30" height="60" as="geometry" />
        </mxCell>
        <mxCell id="QcyDeqVeKNj4fHNgKDZS-10" value="Login" style="ellipse;whiteSpace=wrap;html=1;" vertex="1" parent="1">
          <mxGeometry x="340" y="130" width="90" height="60" as="geometry" />
        </mxCell>
        <mxCell id="QcyDeqVeKNj4fHNgKDZS-11" value="check all books" style="ellipse;whiteSpace=wrap;html=1;" vertex="1" parent="1">
          <mxGeometry x="340" y="280" width="90" height="60" as="geometry" />
        </mxCell>
        <mxCell id="QcyDeqVeKNj4fHNgKDZS-12" value="Make a order" style="ellipse;whiteSpace=wrap;html=1;" vertex="1" parent="1">
          <mxGeometry x="340" y="360" width="90" height="60" as="geometry" />
        </mxCell>
        <mxCell id="QcyDeqVeKNj4fHNgKDZS-13" value="Buy books" style="ellipse;whiteSpace=wrap;html=1;" vertex="1" parent="1">
          <mxGeometry x="340" y="440" width="90" height="60" as="geometry" />
        </mxCell>
        <mxCell id="QcyDeqVeKNj4fHNgKDZS-14" value="See orders" style="ellipse;whiteSpace=wrap;html=1;" vertex="1" parent="1">
          <mxGeometry x="340" y="520" width="90" height="60" as="geometry" />
        </mxCell>
        <mxCell id="QcyDeqVeKNj4fHNgKDZS-15" value="Add books" style="ellipse;whiteSpace=wrap;html=1;" vertex="1" parent="1">
          <mxGeometry x="340" y="597" width="90" height="60" as="geometry" />
        </mxCell>
        <mxCell id="QcyDeqVeKNj4fHNgKDZS-16" value="Update/delete book" style="ellipse;whiteSpace=wrap;html=1;" vertex="1" parent="1">
          <mxGeometry x="340" y="677" width="90" height="60" as="geometry" />
        </mxCell>
        <mxCell id="QcyDeqVeKNj4fHNgKDZS-17" value="Verify" style="ellipse;whiteSpace=wrap;html=1;" vertex="1" parent="1">
          <mxGeometry x="530" y="90" width="60" height="40" as="geometry" />
        </mxCell>
        <mxCell id="QcyDeqVeKNj4fHNgKDZS-18" value="inccorect" style="ellipse;whiteSpace=wrap;html=1;" vertex="1" parent="1">
          <mxGeometry x="530" y="160" width="60" height="40" as="geometry" />
        </mxCell>
        <mxCell id="QcyDeqVeKNj4fHNgKDZS-19" value="check availability" style="ellipse;whiteSpace=wrap;html=1;" vertex="1" parent="1">
          <mxGeometry x="520" y="370" width="70" height="40" as="geometry" />
        </mxCell>
        <mxCell id="QcyDeqVeKNj4fHNgKDZS-24" value="" style="endArrow=block;dashed=1;endFill=0;endSize=12;html=1;rounded=0;entryX=0.033;entryY=0.765;entryDx=0;entryDy=0;entryPerimeter=0;exitX=1;exitY=0.383;exitDx=0;exitDy=0;exitPerimeter=0;" edge="1" parent="1" source="QcyDeqVeKNj4fHNgKDZS-10" target="QcyDeqVeKNj4fHNgKDZS-17">
          <mxGeometry width="160" relative="1" as="geometry">
            <mxPoint x="340" y="230" as="sourcePoint" />
            <mxPoint x="500" y="230" as="targetPoint" />
          </mxGeometry>
        </mxCell>
        <mxCell id="QcyDeqVeKNj4fHNgKDZS-25" value="&amp;lt;&amp;lt;Include&amp;gt;&amp;gt;" style="text;html=1;strokeColor=none;fillColor=none;align=center;verticalAlign=middle;whiteSpace=wrap;rounded=0;rotation=-15;" vertex="1" parent="1">
          <mxGeometry x="443" y="112" width="60" height="30" as="geometry" />
        </mxCell>
        <mxCell id="QcyDeqVeKNj4fHNgKDZS-27" value="" style="endArrow=block;dashed=1;endFill=0;endSize=12;html=1;rounded=0;exitX=0;exitY=1;exitDx=0;exitDy=0;" edge="1" parent="1" source="QcyDeqVeKNj4fHNgKDZS-18" target="QcyDeqVeKNj4fHNgKDZS-10">
          <mxGeometry width="160" relative="1" as="geometry">
            <mxPoint x="440" y="183" as="sourcePoint" />
            <mxPoint x="542" y="151" as="targetPoint" />
          </mxGeometry>
        </mxCell>
        <mxCell id="QcyDeqVeKNj4fHNgKDZS-28" value="&amp;lt;&amp;lt;Extend&amp;gt;&amp;gt;" style="text;html=1;strokeColor=none;fillColor=none;align=center;verticalAlign=middle;whiteSpace=wrap;rounded=0;rotation=15;" vertex="1" parent="1">
          <mxGeometry x="453" y="179" width="60" height="30" as="geometry" />
        </mxCell>
        <mxCell id="QcyDeqVeKNj4fHNgKDZS-29" value="" style="endArrow=block;dashed=1;endFill=0;endSize=12;html=1;rounded=0;entryX=0;entryY=0.5;entryDx=0;entryDy=0;exitX=1;exitY=0.5;exitDx=0;exitDy=0;" edge="1" parent="1" source="QcyDeqVeKNj4fHNgKDZS-12" target="QcyDeqVeKNj4fHNgKDZS-19">
          <mxGeometry width="160" relative="1" as="geometry">
            <mxPoint x="440" y="303" as="sourcePoint" />
            <mxPoint x="542" y="271" as="targetPoint" />
          </mxGeometry>
        </mxCell>
        <mxCell id="QcyDeqVeKNj4fHNgKDZS-30" value="&amp;lt;&amp;lt;Include&amp;gt;&amp;gt;" style="text;html=1;strokeColor=none;fillColor=none;align=center;verticalAlign=middle;whiteSpace=wrap;rounded=0;rotation=0;" vertex="1" parent="1">
          <mxGeometry x="443" y="365" width="60" height="30" as="geometry" />
        </mxCell>
        <mxCell id="QcyDeqVeKNj4fHNgKDZS-32" value="" style="endArrow=none;html=1;rounded=0;" edge="1" parent="1" source="QcyDeqVeKNj4fHNgKDZS-4" target="QcyDeqVeKNj4fHNgKDZS-10">
          <mxGeometry width="50" height="50" relative="1" as="geometry">
            <mxPoint x="400" y="350" as="sourcePoint" />
            <mxPoint x="450" y="300" as="targetPoint" />
          </mxGeometry>
        </mxCell>
        <mxCell id="QcyDeqVeKNj4fHNgKDZS-33" value="" style="endArrow=none;html=1;rounded=0;exitX=1;exitY=0.3333333333333333;exitDx=0;exitDy=0;exitPerimeter=0;entryX=0;entryY=0.5;entryDx=0;entryDy=0;" edge="1" parent="1" source="QcyDeqVeKNj4fHNgKDZS-4" target="QcyDeqVeKNj4fHNgKDZS-11">
          <mxGeometry width="50" height="50" relative="1" as="geometry">
            <mxPoint x="150" y="368" as="sourcePoint" />
            <mxPoint x="366" y="193" as="targetPoint" />
          </mxGeometry>
        </mxCell>
        <mxCell id="QcyDeqVeKNj4fHNgKDZS-34" value="" style="endArrow=none;html=1;rounded=0;exitX=1;exitY=0.3333333333333333;exitDx=0;exitDy=0;exitPerimeter=0;entryX=0;entryY=0.5;entryDx=0;entryDy=0;" edge="1" parent="1" source="QcyDeqVeKNj4fHNgKDZS-4" target="QcyDeqVeKNj4fHNgKDZS-12">
          <mxGeometry width="50" height="50" relative="1" as="geometry">
            <mxPoint x="150" y="370" as="sourcePoint" />
            <mxPoint x="350" y="250" as="targetPoint" />
          </mxGeometry>
        </mxCell>
        <mxCell id="QcyDeqVeKNj4fHNgKDZS-35" value="" style="endArrow=none;html=1;rounded=0;exitX=1;exitY=0.3333333333333333;exitDx=0;exitDy=0;exitPerimeter=0;" edge="1" parent="1" source="QcyDeqVeKNj4fHNgKDZS-4" target="QcyDeqVeKNj4fHNgKDZS-13">
          <mxGeometry width="50" height="50" relative="1" as="geometry">
            <mxPoint x="160" y="380" as="sourcePoint" />
            <mxPoint x="360" y="260" as="targetPoint" />
          </mxGeometry>
        </mxCell>
        <mxCell id="QcyDeqVeKNj4fHNgKDZS-36" value="" style="endArrow=none;html=1;rounded=0;exitX=1;exitY=0.5;exitDx=0;exitDy=0;" edge="1" parent="1" source="QcyDeqVeKNj4fHNgKDZS-16" target="QcyDeqVeKNj4fHNgKDZS-6">
          <mxGeometry width="50" height="50" relative="1" as="geometry">
            <mxPoint x="170" y="390" as="sourcePoint" />
            <mxPoint x="370" y="270" as="targetPoint" />
          </mxGeometry>
        </mxCell>
        <mxCell id="QcyDeqVeKNj4fHNgKDZS-37" value="" style="endArrow=none;html=1;rounded=0;exitX=0.991;exitY=0.633;exitDx=0;exitDy=0;exitPerimeter=0;" edge="1" parent="1" source="QcyDeqVeKNj4fHNgKDZS-15" target="QcyDeqVeKNj4fHNgKDZS-6">
          <mxGeometry width="50" height="50" relative="1" as="geometry">
            <mxPoint x="440" y="647" as="sourcePoint" />
            <mxPoint x="700" y="380" as="targetPoint" />
          </mxGeometry>
        </mxCell>
        <mxCell id="QcyDeqVeKNj4fHNgKDZS-38" value="" style="endArrow=none;html=1;rounded=0;exitX=1;exitY=0.5;exitDx=0;exitDy=0;" edge="1" parent="1" source="QcyDeqVeKNj4fHNgKDZS-14" target="QcyDeqVeKNj4fHNgKDZS-6">
          <mxGeometry width="50" height="50" relative="1" as="geometry">
            <mxPoint x="439" y="575" as="sourcePoint" />
            <mxPoint x="710" y="381" as="targetPoint" />
          </mxGeometry>
        </mxCell>
        <mxCell id="QcyDeqVeKNj4fHNgKDZS-40" value="" style="endArrow=none;html=1;rounded=0;exitX=1;exitY=0.5;exitDx=0;exitDy=0;" edge="1" parent="1" source="QcyDeqVeKNj4fHNgKDZS-11" target="QcyDeqVeKNj4fHNgKDZS-6">
          <mxGeometry width="50" height="50" relative="1" as="geometry">
            <mxPoint x="440" y="490" as="sourcePoint" />
            <mxPoint x="710" y="376" as="targetPoint" />
          </mxGeometry>
        </mxCell>
        <mxCell id="QcyDeqVeKNj4fHNgKDZS-42" value="Sign in" style="ellipse;whiteSpace=wrap;html=1;" vertex="1" parent="1">
          <mxGeometry x="340" y="210" width="90" height="60" as="geometry" />
        </mxCell>
        <mxCell id="QcyDeqVeKNj4fHNgKDZS-43" value="" style="endArrow=none;html=1;rounded=0;exitX=1;exitY=0.3333333333333333;exitDx=0;exitDy=0;exitPerimeter=0;entryX=0;entryY=0.5;entryDx=0;entryDy=0;" edge="1" parent="1" source="QcyDeqVeKNj4fHNgKDZS-4" target="QcyDeqVeKNj4fHNgKDZS-42">
          <mxGeometry width="50" height="50" relative="1" as="geometry">
            <mxPoint x="150" y="330" as="sourcePoint" />
            <mxPoint x="363" y="191" as="targetPoint" />
          </mxGeometry>
        </mxCell>
      </root>
    </mxGraphModel>
  </diagram>
</mxfile>
